<svg width="79" height="20" viewBox="0 0 79 20" fill="none" xmlns="http://www.w3.org/2000/svg">
<path d="M71.1275 0C69.0388 0 67.1437 0.67931 65.6899 1.93L65.2709 0.447583H61.5855V19.0842H66.2708V8.958C66.2708 6.80262 67.7151 4.61867 70.4736 4.61867C72.6322 4.61867 73.9178 6.13918 73.9178 8.68183V19.0873H78.6031V8.339C78.6031 3.27275 75.67 0 71.1275 0ZM33.6798 9.75159C33.6798 12.7259 31.7403 14.8845 29.0643 14.8845C26.3883 14.8845 24.4488 12.7259 24.4488 9.75159C24.4488 6.77723 26.3883 4.61867 29.0643 4.61867C31.7371 4.61867 33.6798 6.77723 33.6798 9.75159ZM29.0611 0C23.8076 0 19.6905 4.28219 19.6905 9.74841C19.6905 15.2146 23.8044 19.5 29.0611 19.5C34.3147 19.5 38.4318 15.2178 38.4318 9.74841C38.4318 4.28219 34.3178 0 29.0611 0ZM54.1543 9.75159C54.1543 12.7259 52.2116 14.8845 49.5388 14.8845C46.866 14.8845 44.9233 12.7259 44.9233 9.75159C44.9233 6.77723 46.866 4.61867 49.5388 4.61867C52.2148 4.61867 54.1543 6.77723 54.1543 9.75159ZM49.5388 0C44.2853 0 40.1682 4.28219 40.1682 9.74841C40.1682 15.2146 44.2821 19.5 49.5388 19.5C54.7924 19.5 58.9095 15.2178 58.9095 9.74841C58.9095 4.28219 54.7955 0 49.5388 0ZM9.54208 0C7.45654 0 5.55828 0.67931 4.10125 1.93L3.68224 0.447583H0V19.0842H4.68533V8.958C4.68533 6.80262 6.12966 4.61867 8.88816 4.61867C11.0467 4.61867 12.3323 6.13918 12.3323 8.68183V19.0873H17.0177V8.339C17.0177 3.27275 14.0846 0 9.54208 0Z" fill="#101628"/>
</svg>
